<?xml version="1.0" encoding="utf-8"?>
<!-- Generator: Adobe Illustrator 19.0.0, SVG Export Plug-In . SVG Version: 6.00 Build 0)  -->
<svg version="1.1" id="Camada_1" xmlns="http://www.w3.org/2000/svg" xmlns:xlink="http://www.w3.org/1999/xlink" x="0px" y="0px"
	 viewBox="0 0 150 65.5" style="enable-background:new 0 0 150 65.5;" xml:space="preserve">
<style type="text/css">
	.st0{fill:#3865A3;}
	.st1{fill:#5EB346;}
</style>
<g id="XMLID_623_">
	<path id="XMLID_624_" class="st0" d="M60.6,7.8c-2.5-0.4-5.2,0.2-7.4,1.9c-2.2,1.7-3.5,4-3.9,6.6c-0.4,2.5,0.2,5.2,1.9,7.4
		c1.7,2.2,4.1,3.5,6.6,3.9c2.5,0.4,5.2-0.2,7.4-1.9L83,12.3c1.2-0.7,2.5-0.9,3.8-0.7c1.6,0.2,2.9,1,3.9,2.2l-22,16.5
		c-3.5,2.6-7.7,3.6-11.8,3c-4-0.6-7.8-2.7-10.4-6.2c-2.6-3.5-3.6-7.7-3-11.8c0.6-4,2.7-7.8,6.2-10.4c3.5-2.6,7.7-3.6,11.8-3
		c2.8,0.4,5.6,1.6,7.8,3.4c-0.7,0.5-1.4,1.1-2.1,1.6C65.5,8.2,64,8.2,60.6,7.8L60.6,7.8z"/>
	<path id="XMLID_625_" class="st1" d="M84.6,27.5c2.5,0.4,5.2-0.2,7.4-1.9c2.2-1.7,3.5-4,3.9-6.6c0.4-2.5-0.2-5.2-1.9-7.4
		c-1.7-2.2-4.1-3.5-6.6-3.9c-2.5-0.4-5.2,0.2-7.4,1.9L62.2,23c-1.2,0.7-2.5,0.9-3.8,0.7c-1.6-0.2-2.9-1-3.9-2.2l22-16.5
		c3.5-2.6,7.7-3.6,11.8-3c4,0.6,7.8,2.7,10.4,6.2c2.6,3.5,3.6,7.7,3,11.8c-0.6,4-2.7,7.8-6.2,10.4c-3.5,2.6-7.7,3.6-11.8,3
		c-2.8-0.4-5.6-1.6-7.8-3.4c0.7-0.5,1.4-1.1,2.1-1.6C79.7,27,81.3,27,84.6,27.5L84.6,27.5z"/>
	<g id="XMLID_626_">
		<path id="XMLID_627_" class="st1" d="M104.3,55.9v-8.3h-5l2.6-3.8h2.6v-5.2h4.7v5.2h4.4v3.8H109v7.7c0,1.4,0.4,2.3,1.2,2.8
			c0.8,0.5,1.7,0.8,2.6,0.8l0.9-0.1V63c-0.4,0.1-0.9,0.1-1.5,0.1c-0.7,0-1.3,0-1.9-0.1c-0.6-0.1-1.3-0.3-2.1-0.6
			c-0.8-0.3-1.4-0.7-2-1.2c-0.6-0.5-1-1.2-1.4-2.1C104.5,58.2,104.3,57.1,104.3,55.9z"/>
		<path id="XMLID_629_" class="st1" d="M116.3,55.9v-8.3h-3.3v-3.8h3.5v-5.2h4.7v5.2h4.4v3.8H121v7.7c0,1.4,0.4,2.3,1.2,2.8
			c0.8,0.5,1.7,0.8,2.6,0.8l0.9-0.1V63c-0.4,0.1-0.9,0.1-1.5,0.1c-0.7,0-1.3,0-1.9-0.1c-0.6-0.1-1.3-0.3-2.1-0.6
			c-0.8-0.3-1.4-0.7-2-1.2c-0.6-0.5-1-1.2-1.4-2.1C116.5,58.2,116.3,57.1,116.3,55.9z"/>
	</g>
	<path id="XMLID_631_" class="st0" d="M1.7,53.3c0-2.8,1-5.2,2.9-7.1c1.9-1.9,4.4-2.9,7.6-2.9c1,0,2,0.1,2.9,0.4
		c1,0.2,1.9,0.7,2.7,1.4c0.9,0.7,1.3,1.5,1.3,2.6v2.3h-4.2v-1.1c0-0.5-0.3-0.8-0.9-1.1c-0.6-0.3-1.2-0.4-1.9-0.4
		c-1.7,0-3,0.6-4.1,1.7c-1.1,1.1-1.6,2.6-1.6,4.3c0,1.9,0.6,3.3,1.7,4.3c1.2,1,2.6,1.6,4.2,1.6c1,0,1.9-0.2,2.9-0.7
		c0.9-0.4,1.6-0.9,2.1-1.3l0.7-0.6l2,3.3c-0.1,0.1-0.2,0.2-0.3,0.4c-0.2,0.2-0.5,0.4-1,0.8c-0.5,0.4-1.1,0.8-1.6,1.1
		c-0.6,0.3-1.3,0.6-2.3,0.8C14,63.2,13,63.4,12,63.4c-3.1,0-5.6-1-7.5-2.9S1.7,56.2,1.7,53.3z"/>
	<path id="XMLID_633_" class="st0" d="M23,60.5c-2-1.9-3-4.3-3-7.2c0-2.9,1-5.3,3-7.2c2-1.9,4.5-2.8,7.5-2.8c3,0,5.4,0.9,7.5,2.8
		c2,1.9,3,4.3,3,7.2c0,2.9-1,5.3-3,7.2c-2,1.9-4.5,2.8-7.5,2.8C27.5,63.4,25,62.4,23,60.5z M24.8,53.3c0,1.8,0.6,3.2,1.7,4.3
		c1.1,1.1,2.4,1.7,4,1.7c1.6,0,3-0.6,4.1-1.7c1.1-1.1,1.7-2.5,1.7-4.3c0-1.7-0.6-3.2-1.7-4.3c-1.1-1.1-2.5-1.7-4-1.7s-2.9,0.6-4,1.7
		C25.4,50.2,24.8,51.6,24.8,53.3z"/>
	<path id="XMLID_636_" class="st0" d="M43.4,62.9V48.6c0-0.6-0.3-0.8-0.8-0.8h-1.5v-4.1h4.4c1.7,0,2.5,0.7,2.5,2.1v0.6l-0.1,0.8H48
		c0.5-1.1,1.4-2,2.5-2.8c1.1-0.8,2.6-1.2,4.3-1.2c4.5,0,6.7,2.4,6.7,7.3v7.5c0,0.6,0.3,0.8,0.8,0.8h1.5v4h-4.5c-0.9,0-1.6-0.2-2-0.6
		c-0.4-0.4-0.6-1.1-0.6-2v-8.8c0-1.3-0.2-2.2-0.7-2.9c-0.4-0.7-1.2-1-2.3-1c-1.3,0-2.3,0.4-3.2,1.1c-0.9,0.7-1.5,1.7-1.9,2.8
		c-0.3,0.8-0.4,1.6-0.4,2.6v8.8H43.4z"/>
	<path id="XMLID_638_" class="st0" d="M63.8,53.3c0-3,0.9-5.4,2.7-7.2c1.8-1.9,4.1-2.8,7-2.8c2.7,0,4.7,0.9,6.2,2.6
		c1.5,1.7,2.3,3.9,2.3,6.5l-0.1,1.8H68.7c0.2,1.6,0.8,2.9,1.9,3.8c1.1,0.9,2.4,1.4,3.9,1.4c0.9,0,1.8-0.2,2.7-0.5
		c0.9-0.4,1.6-0.7,2-1.1l0.7-0.5l2,3.3c-0.1,0.1-0.2,0.2-0.3,0.3c-0.2,0.1-0.5,0.4-1,0.7c-0.5,0.3-1,0.6-1.6,0.9
		c-0.6,0.3-1.3,0.5-2.1,0.7c-0.9,0.2-1.7,0.3-2.6,0.3c-3.1,0-5.6-1-7.5-2.9C64.7,58.5,63.8,56.1,63.8,53.3z M68.8,50.9h8.3
		c0-1.1-0.4-2.1-1.1-2.8c-0.7-0.7-1.5-1.1-2.5-1.1c-1.2,0-2.2,0.3-3.1,1C69.6,48.7,69.1,49.7,68.8,50.9z"/>
	<path id="XMLID_641_" class="st0" d="M84.6,62.9V41.1c0-0.6-0.3-0.8-0.8-0.8h-1.5v-4.1h4.5c0.9,0,1.6,0.2,2,0.5
		c0.4,0.3,0.6,0.9,0.6,1.7v12.1h1.4c0.9,0,1.5-0.2,1.8-0.7l3.9-6h5.3L96.9,51c-0.3,0.4-0.5,0.7-0.7,0.9c-0.2,0.3-0.4,0.4-0.5,0.5
		l-0.2,0.1v0.1c0.5,0.2,0.9,0.7,1.4,1.5l2.2,4.1c0.2,0.5,0.8,0.7,1.6,0.7h1.3v4h-3.5c-0.8,0-1.4-0.1-1.8-0.3
		c-0.4-0.2-0.8-0.7-1.2-1.3l-3.2-6c-0.3-0.5-0.9-0.7-1.8-0.7h-1.1v8.4H84.6z"/>
	<path id="XMLID_643_" class="st0" d="M127.2,57.4c0-1,0.2-1.8,0.6-2.6c0.4-0.8,1-1.4,1.7-1.8c0.7-0.5,1.5-0.8,2.2-1.1
		c0.8-0.3,1.6-0.5,2.6-0.7c0.9-0.1,1.7-0.2,2.4-0.3c0.6,0,1.3-0.1,1.9-0.1h0.6v-0.2c0-1.4-0.3-2.3-0.8-2.9c-0.6-0.6-1.5-0.9-2.7-0.9
		c-0.6,0-1.2,0.1-1.7,0.3s-0.8,0.5-0.8,1v1h-4.4v-2c0-0.8,0.3-1.5,0.8-2.1c0.5-0.6,1.2-1,2-1.2c0.8-0.2,1.6-0.4,2.3-0.5
		c0.7-0.1,1.3-0.1,2-0.1c5.5,0,8.3,2.5,8.3,7.6v7.1c0,0.6,0.3,0.8,0.8,0.8h1.5v4H142c-0.8,0-1.4-0.2-1.8-0.6
		c-0.4-0.4-0.6-0.9-0.6-1.5l0-0.8h-0.1c-0.1,0.1-0.1,0.2-0.2,0.4c-0.1,0.2-0.3,0.4-0.6,0.8c-0.3,0.4-0.7,0.7-1.1,1
		c-0.4,0.3-1,0.6-1.7,0.8c-0.7,0.2-1.5,0.4-2.3,0.4c-1.8,0-3.3-0.5-4.6-1.6C127.8,60.7,127.2,59.2,127.2,57.4z M132,57.2
		c0,0.7,0.2,1.3,0.8,1.7c0.5,0.5,1.2,0.7,2.1,0.7c1.2,0,2.3-0.5,3.1-1.6c0.8-1.1,1.3-2.2,1.3-3.4v-0.5h-0.8
		C134.1,54.2,132,55.2,132,57.2z"/>
</g>
<g id="XMLID_646_">
	<path id="XMLID_647_" class="st0" d="M145.4,39.9c0.3,0,0.7,0.1,1,0.3c0.3,0.2,0.6,0.4,0.8,0.8c0.2,0.3,0.3,0.7,0.3,1
		c0,0.4-0.1,0.7-0.3,1c-0.2,0.3-0.4,0.6-0.8,0.8c-0.3,0.2-0.7,0.3-1,0.3c-0.4,0-0.7-0.1-1-0.3c-0.3-0.2-0.6-0.4-0.8-0.8
		c-0.2-0.3-0.3-0.7-0.3-1c0-0.4,0.1-0.7,0.3-1c0.2-0.3,0.4-0.6,0.8-0.8C144.7,40,145,39.9,145.4,39.9z M145.4,40.3
		c-0.3,0-0.6,0.1-0.9,0.2c-0.3,0.1-0.5,0.4-0.6,0.6c-0.2,0.3-0.2,0.6-0.2,0.9c0,0.3,0.1,0.6,0.2,0.9c0.2,0.3,0.4,0.5,0.6,0.6
		c0.3,0.2,0.6,0.2,0.9,0.2c0.3,0,0.6-0.1,0.9-0.2c0.3-0.2,0.5-0.4,0.6-0.6c0.2-0.3,0.2-0.6,0.2-0.9c0-0.3-0.1-0.6-0.2-0.9
		c-0.2-0.3-0.4-0.5-0.6-0.6C146,40.3,145.7,40.3,145.4,40.3z M144.5,43.1v-2.2h0.8c0.3,0,0.5,0,0.6,0.1c0.1,0,0.2,0.1,0.3,0.2
		c0.1,0.1,0.1,0.2,0.1,0.3c0,0.2-0.1,0.3-0.2,0.4c-0.1,0.1-0.3,0.2-0.5,0.2c0.1,0,0.1,0.1,0.2,0.1c0.1,0.1,0.2,0.2,0.3,0.4l0.3,0.4
		h-0.4l-0.2-0.4c-0.2-0.3-0.3-0.5-0.4-0.5c-0.1-0.1-0.2-0.1-0.3-0.1h-0.2v1H144.5z M144.8,41.9h0.4c0.2,0,0.4,0,0.4-0.1
		c0.1-0.1,0.1-0.1,0.1-0.2c0-0.1,0-0.1-0.1-0.2c0-0.1-0.1-0.1-0.2-0.1c-0.1,0-0.2,0-0.4,0h-0.4V41.9z"/>
</g>
</svg>
