<?xml version="1.0" encoding="utf-8"?>
<!-- Generator: Adobe Illustrator 19.0.0, SVG Export Plug-In . SVG Version: 6.00 Build 0)  -->
<svg version="1.1" id="Camada_1" xmlns="http://www.w3.org/2000/svg" xmlns:xlink="http://www.w3.org/1999/xlink" x="0px" y="0px"
	 viewBox="0 0 199.8 99.9" style="enable-background:new 0 0 199.8 99.9;" xml:space="preserve">
<style type="text/css">
	.st0{fill:#3865A4;}
	.st1{fill:#52B955;}
	.st2{fill:#3A66A4;}
</style>
<g id="XMLID_185_">
	<g id="XMLID_192_">
		<path id="XMLID_255_" class="st0" d="M81.4,17c-3.4-0.5-6.9,0.3-9.8,2.5c-2.9,2.2-4.7,5.4-5.2,8.7c-0.5,3.4,0.3,6.9,2.5,9.8
			c2.2,2.9,5.4,4.7,8.7,5.2c3.4,0.5,6.9-0.3,9.8-2.5L111.1,23c1.5-0.9,3.3-1.2,5.1-0.9c2.1,0.3,3.9,1.4,5.2,3L92.2,47
			c-4.7,3.5-10.3,4.8-15.6,4c-5.3-0.8-10.4-3.6-13.9-8.2c-3.5-4.7-4.8-10.3-4-15.6c0.8-5.3,3.6-10.4,8.2-13.9
			c4.7-3.5,10.3-4.8,15.6-4c3.8,0.5,7.4,2.1,10.4,4.6C92,14.6,91,15.3,90.1,16C87.9,17.7,85.8,17.7,81.4,17L81.4,17z"/>
		<path id="XMLID_254_" class="st1" d="M113.2,43.2c3.4,0.5,6.9-0.3,9.8-2.5c2.9-2.2,4.7-5.4,5.2-8.7c0.5-3.4-0.3-6.9-2.5-9.8
			c-2.2-2.9-5.4-4.7-8.7-5.2c-3.4-0.5-6.9,0.3-9.8,2.5L83.5,37.2c-1.5,0.9-3.3,1.2-5.1,0.9c-2.1-0.3-3.9-1.4-5.2-3l29.2-21.9
			c4.7-3.5,10.3-4.8,15.6-4c5.3,0.8,10.4,3.6,13.9,8.2c3.5,4.7,4.8,10.3,4,15.6c-0.8,5.3-3.6,10.4-8.2,13.9
			c-4.7,3.5-10.3,4.8-15.6,4c-3.8-0.5-7.4-2.1-10.4-4.6c0.9-0.7,1.9-1.4,2.8-2.1C106.7,42.6,108.8,42.6,113.2,43.2L113.2,43.2z"/>
		<g id="XMLID_249_">
			<path id="XMLID_252_" class="st1" d="M139.3,80.9V69.9h-6.7l3.4-5h3.4v-6.9h6.2v6.9h5.8v5h-5.8v10.3c0,1.8,0.5,3.1,1.6,3.8
				c1,0.7,2.2,1,3.5,1l1.1-0.1v5.5c-0.5,0.1-1.2,0.1-1.9,0.1c-0.9,0-1.7-0.1-2.5-0.2c-0.8-0.1-1.7-0.4-2.7-0.8
				c-1-0.4-1.9-0.9-2.7-1.6c-0.7-0.6-1.4-1.6-1.9-2.8C139.6,84,139.3,82.6,139.3,80.9z"/>
			<path id="XMLID_250_" class="st1" d="M155.2,80.9V69.9h-4.4v-5h4.6v-6.9h6.2v6.9h5.8v5h-5.8v10.3c0,1.8,0.5,3.1,1.6,3.8
				c1,0.7,2.2,1,3.5,1l1.1-0.1v5.5c-0.5,0.1-1.2,0.1-1.9,0.1c-0.9,0-1.7-0.1-2.5-0.2c-0.8-0.1-1.7-0.4-2.7-0.8
				c-1-0.4-1.9-0.9-2.7-1.6c-0.7-0.6-1.4-1.6-1.9-2.8C155.5,84,155.2,82.6,155.2,80.9z"/>
		</g>
		<path id="XMLID_247_" class="st0" d="M3.1,77.5c0-3.7,1.3-6.9,3.8-9.4c2.5-2.6,5.9-3.9,10.1-3.9c1.3,0,2.6,0.2,3.9,0.5
			c1.3,0.3,2.5,0.9,3.6,1.8c1.1,0.9,1.7,2.1,1.7,3.4v3h-5.6v-1.4c0-0.6-0.4-1.1-1.1-1.5c-0.8-0.3-1.6-0.5-2.5-0.5
			c-2.2,0-4,0.7-5.4,2.2c-1.4,1.5-2.1,3.4-2.1,5.7c0,2.5,0.8,4.4,2.3,5.8c1.5,1.4,3.4,2.1,5.6,2.1c1.3,0,2.6-0.3,3.8-0.9
			c1.2-0.6,2.2-1.2,2.8-1.7l0.9-0.8l2.6,4.4c-0.1,0.1-0.2,0.3-0.4,0.5c-0.2,0.2-0.6,0.6-1.3,1.1c-0.7,0.5-1.4,1-2.2,1.4
			c-0.8,0.4-1.8,0.8-3,1.1c-1.2,0.3-2.5,0.5-3.8,0.5c-4.1,0-7.4-1.3-9.9-3.8S3.1,81.3,3.1,77.5z"/>
		<path id="XMLID_244_" class="st0" d="M31.4,87.1c-2.7-2.5-4-5.7-4-9.5c0-3.9,1.3-7,4-9.5c2.7-2.5,6-3.8,9.9-3.8
			c3.9,0,7.2,1.3,9.9,3.8c2.7,2.5,4,5.7,4,9.5c0,3.9-1.3,7-4,9.5c-2.7,2.5-6,3.8-9.9,3.8C37.4,90.9,34.1,89.6,31.4,87.1z M33.8,77.5
			c0,2.3,0.7,4.2,2.2,5.7c1.5,1.5,3.2,2.2,5.3,2.2c2.1,0,3.9-0.7,5.4-2.2c1.5-1.5,2.2-3.4,2.2-5.7c0-2.3-0.7-4.2-2.2-5.7
			c-1.5-1.5-3.3-2.2-5.4-2.2s-3.9,0.7-5.3,2.2C34.5,73.4,33.8,75.2,33.8,77.5z"/>
		<path id="XMLID_242_" class="st0" d="M58.5,90.3V71.3c0-0.7-0.4-1.1-1.1-1.1h-2v-5.4h5.8c2.2,0,3.3,0.9,3.3,2.8v0.7l-0.1,1.1h0.1
			c0.7-1.4,1.8-2.6,3.3-3.7c1.5-1.1,3.4-1.6,5.7-1.6c5.9,0,8.9,3.2,8.9,9.7v9.9c0,0.7,0.4,1.1,1.1,1.1h2v5.3h-6
			c-1.2,0-2.1-0.3-2.6-0.8c-0.5-0.5-0.8-1.4-0.8-2.6V75.2c0-1.7-0.3-3-0.9-3.9c-0.6-0.9-1.6-1.3-3.1-1.3c-1.7,0-3.1,0.5-4.3,1.4
			c-1.2,0.9-2.1,2.2-2.5,3.8c-0.3,1-0.5,2.1-0.5,3.4v11.7H58.5z"/>
		<path id="XMLID_239_" class="st0" d="M85.6,77.5c0-3.9,1.2-7.1,3.6-9.6c2.4-2.5,5.5-3.7,9.3-3.7c3.5,0,6.3,1.1,8.3,3.4
			c2,2.3,3,5.2,3,8.6l-0.1,2.3H92c0.2,2.2,1.1,3.8,2.5,5c1.4,1.2,3.1,1.8,5.1,1.8c1.2,0,2.4-0.2,3.6-0.7c1.2-0.5,2.1-1,2.6-1.4
			l0.9-0.7l2.6,4.4c-0.1,0.1-0.2,0.2-0.4,0.4c-0.2,0.2-0.6,0.5-1.3,0.9c-0.7,0.4-1.4,0.8-2.1,1.1c-0.7,0.3-1.7,0.6-2.8,0.9
			c-1.1,0.3-2.3,0.4-3.5,0.4c-4.1,0-7.4-1.3-9.9-3.9C86.8,84.4,85.6,81.3,85.6,77.5z M92.2,74.3h11c0-1.5-0.5-2.7-1.4-3.7
			c-0.9-1-2-1.4-3.4-1.4c-1.6,0-3,0.5-4.1,1.4C93.3,71.4,92.6,72.7,92.2,74.3z"/>
		<path id="XMLID_237_" class="st0" d="M113.2,90.3V61.3c0-0.7-0.4-1.1-1.1-1.1h-2v-5.4h6c1.2,0,2.1,0.2,2.6,0.6
			c0.5,0.4,0.8,1.2,0.8,2.3v16.1h1.9c1.2,0,2-0.3,2.4-0.9l5.2-8h7l-6.4,9.6c-0.3,0.5-0.7,0.9-1,1.2c-0.3,0.3-0.6,0.5-0.7,0.6
			l-0.2,0.1v0.1c0.6,0.2,1.2,0.9,1.8,2l2.9,5.5c0.3,0.6,1,0.9,2.1,0.9h1.7v5.3h-4.7c-1.1,0-1.9-0.1-2.4-0.4c-0.5-0.3-1-0.9-1.5-1.8
			l-4.2-8c-0.4-0.6-1.1-0.9-2.3-0.9h-1.4v11.1H113.2z"/>
		<path id="XMLID_193_" class="st0" d="M169.7,82.9c0-1.3,0.3-2.4,0.8-3.4c0.5-1,1.3-1.8,2.2-2.4c0.9-0.6,1.9-1.1,3-1.5
			c1-0.4,2.2-0.7,3.4-0.9c1.2-0.2,2.3-0.3,3.1-0.3c0.8-0.1,1.7-0.1,2.6-0.1h0.8v-0.2c0-1.8-0.4-3.1-1.1-3.8
			c-0.7-0.8-1.9-1.1-3.6-1.1c-0.8,0-1.6,0.1-2.3,0.4c-0.7,0.2-1.1,0.7-1.1,1.3v1.3h-5.9v-2.7c0-1.1,0.3-2,1-2.8
			c0.7-0.8,1.6-1.3,2.7-1.6c1.1-0.3,2.1-0.5,3-0.6c0.9-0.1,1.8-0.2,2.6-0.2c7.3,0,11,3.4,11,10.1v9.5c0,0.7,0.4,1.1,1.1,1.1h2v5.3
			h-5.7c-1.1,0-1.9-0.3-2.4-0.8c-0.5-0.5-0.8-1.2-0.8-2l0.1-1.1h-0.1c-0.1,0.1-0.1,0.3-0.2,0.5c-0.1,0.2-0.4,0.6-0.8,1.1
			c-0.4,0.5-0.9,1-1.4,1.4c-0.5,0.4-1.3,0.8-2.2,1.1c-0.9,0.3-1.9,0.5-3,0.5c-2.4,0-4.4-0.7-6.1-2.1
			C170.6,87.3,169.7,85.4,169.7,82.9z M176.1,82.6c0,0.9,0.3,1.7,1,2.3c0.7,0.6,1.6,1,2.8,1c1.6,0,3-0.7,4.1-2.1
			c1.1-1.4,1.7-2.9,1.7-4.6v-0.6h-1.1C178.9,78.6,176.1,80,176.1,82.6z"/>
	</g>
	<g id="XMLID_186_">
		<path id="XMLID_187_" class="st2" d="M193.9,59.7c0.5,0,0.9,0.1,1.4,0.4c0.4,0.2,0.8,0.6,1,1c0.2,0.4,0.4,0.9,0.4,1.4
			c0,0.5-0.1,0.9-0.4,1.4c-0.2,0.4-0.6,0.8-1,1c-0.4,0.2-0.9,0.4-1.4,0.4c-0.5,0-0.9-0.1-1.4-0.4c-0.4-0.2-0.8-0.6-1-1
			c-0.2-0.4-0.4-0.9-0.4-1.4c0-0.5,0.1-0.9,0.4-1.4c0.2-0.4,0.6-0.8,1-1C193,59.8,193.4,59.7,193.9,59.7z M193.9,60.2
			c-0.4,0-0.8,0.1-1.1,0.3c-0.4,0.2-0.7,0.5-0.9,0.9c-0.2,0.4-0.3,0.8-0.3,1.2c0,0.4,0.1,0.8,0.3,1.1c0.2,0.4,0.5,0.6,0.9,0.9
			c0.4,0.2,0.7,0.3,1.1,0.3c0.4,0,0.8-0.1,1.1-0.3c0.4-0.2,0.6-0.5,0.9-0.9c0.2-0.4,0.3-0.7,0.3-1.1c0-0.4-0.1-0.8-0.3-1.2
			c-0.2-0.4-0.5-0.7-0.9-0.9C194.7,60.3,194.3,60.2,193.9,60.2z M192.7,64v-3h1c0.3,0,0.6,0,0.8,0.1c0.2,0.1,0.3,0.2,0.4,0.3
			c0.1,0.1,0.1,0.3,0.1,0.4c0,0.2-0.1,0.4-0.2,0.6c-0.2,0.2-0.4,0.3-0.6,0.3c0.1,0,0.2,0.1,0.3,0.2c0.1,0.1,0.3,0.3,0.4,0.6l0.4,0.6
			h-0.6l-0.3-0.5c-0.2-0.4-0.4-0.6-0.5-0.7c-0.1-0.1-0.2-0.1-0.4-0.1h-0.3V64H192.7z M193.2,62.3h0.6c0.3,0,0.5,0,0.6-0.1
			c0.1-0.1,0.2-0.2,0.2-0.3c0-0.1,0-0.2-0.1-0.2c0-0.1-0.1-0.1-0.2-0.2c-0.1,0-0.2-0.1-0.5-0.1h-0.5V62.3z"/>
	</g>
</g>
</svg>
